<?xml version="1.0" standalone="no"?>
<!DOCTYPE svg PUBLIC "-//W3C//DTD SVG 20010904//EN"
 "http://www.w3.org/TR/2001/REC-SVG-20010904/DTD/svg10.dtd">
<svg version="1.0" xmlns="http://www.w3.org/2000/svg"
 width="1240.000000pt" height="1364.000000pt" viewBox="0 0 1240.000000 1364.000000"
 preserveAspectRatio="xMidYMid meet">
<metadata>
Created by potrace 1.15, written by Peter Selinger 2001-2017
</metadata>
<g transform="translate(0.000000,1364.000000) scale(0.100000,-0.100000)"
fill="#000000" stroke="none">
<path d="M1730 13535 l0 -105 -95 0 -95 0 0 -105 0 -105 -95 0 -95 0 0 -105 0
-105 190 0 190 0 0 -105 0 -105 290 0 290 0 0 105 0 105 195 0 195 0 0 105 0
105 -95 0 -95 0 0 105 0 105 -100 0 -100 0 0 105 0 105 -290 0 -290 0 0 -105z
m540 -40 l0 -95 100 0 100 0 0 -55 0 -55 -150 0 -150 0 0 100 0 100 -125 0
-125 0 0 50 0 50 175 0 175 0 0 -95z"/>
<path d="M1920 12485 l0 -105 100 0 100 0 0 105 0 105 -100 0 -100 0 0 -105z"/>
<path d="M1730 12065 l0 -105 290 0 290 0 0 105 0 105 -290 0 -290 0 0 -105z"/>
<path d="M1542 11648 l3 -103 483 -3 482 -2 0 105 0 105 -485 0 -486 0 3 -102z"/>
<path d="M1350 11225 l0 -105 670 0 670 0 0 105 0 105 -670 0 -670 0 0 -105z"/>
<path d="M1730 10810 l0 -100 95 0 95 0 0 -105 0 -105 100 0 100 0 0 105 0
105 95 0 95 0 0 100 0 100 -290 0 -290 0 0 -100z"/>
<path d="M820 10095 l0 -405 280 0 280 0 0 50 0 50 45 0 45 0 0 150 0 150 -45
0 -45 0 0 50 0 50 45 0 45 0 0 100 0 100 -44 0 -45 0 -3 53 -3 52 -277 3 -278
2 0 -405z m460 195 l0 -100 -135 0 -135 0 0 100 0 100 135 0 135 0 0 -100z m0
-350 l0 -150 -135 0 -135 0 0 150 0 150 135 0 135 0 0 -150z"/>
<path d="M1780 10140 l0 -50 -50 0 -50 0 0 -150 0 -150 50 0 50 0 0 -50 0 -50
230 0 230 0 0 50 0 50 -185 0 -185 0 0 50 0 50 230 0 230 0 0 100 0 100 -45 0
-45 0 0 50 0 50 -230 0 -230 0 0 -50z m370 -100 l0 -50 -140 0 -140 0 0 50 0
50 140 0 140 0 0 -50z"/>
<path d="M2640 10140 l0 -50 -45 0 -45 0 0 -150 0 -150 45 0 45 0 0 -50 0 -50
230 0 230 0 0 50 0 50 -185 0 -185 0 0 50 0 50 230 0 230 0 0 100 0 100 -45 0
-45 0 0 50 0 50 -230 0 -230 0 0 -50z m370 -100 l0 -50 -140 0 -140 0 0 50 0
50 140 0 140 0 0 -50z"/>
<path d="M440 9205 l0 -405 90 0 90 0 0 205 0 206 138 -3 137 -3 3 -202 2
-203 90 0 90 0 0 405 0 405 -90 0 -90 0 0 -150 0 -150 -140 0 -140 0 0 150 0
150 -90 0 -90 0 0 -405z"/>
<path d="M3020 9205 l0 -405 95 0 95 0 0 100 0 100 45 0 45 0 0 -50 0 -50 44
0 45 0 3 -47 3 -48 93 -3 92 -3 0 51 0 50 -45 0 -45 0 0 49 0 50 -47 3 -48 3
0 50 0 50 48 3 47 3 0 50 0 49 45 0 45 0 0 50 0 51 -92 -3 -93 -3 -3 -52 -3
-53 -45 0 -44 0 0 -50 0 -50 -45 0 -45 0 0 255 0 255 -95 0 -95 0 0 -405z"/>
<path d="M1390 9260 l0 -50 185 0 185 0 0 -55 0 -55 -185 0 -185 0 0 -50 0
-50 -45 0 -45 0 0 -50 0 -50 45 0 45 0 0 -50 0 -50 280 0 280 0 0 200 0 200
-50 0 -50 0 0 55 0 55 -230 0 -230 0 0 -50z m370 -310 l0 -50 -140 0 -140 0 0
50 0 50 140 0 140 0 0 -50z"/>
<path d="M2257 9303 c-4 -3 -7 -28 -7 -55 l0 -48 -45 0 -45 0 0 -150 0 -150
45 0 45 0 0 -50 0 -50 235 0 235 0 0 50 0 50 45 0 45 0 0 50 0 50 -95 0 -95 0
0 -50 0 -50 -135 0 -135 0 0 155 0 155 135 0 135 0 0 -50 0 -50 95 0 95 0 0
45 0 45 -45 0 -45 0 0 55 0 55 -228 0 c-126 0 -232 -3 -235 -7z"/>
<path d="M1720 3905 l0 -85 -95 0 -95 0 0 -90 0 -90 -95 0 -95 0 0 -85 0 -85
190 0 190 0 0 -85 0 -85 285 0 285 0 0 85 0 85 195 0 195 0 0 85 0 85 -95 0
-95 0 0 90 0 90 -100 0 -100 0 0 85 0 85 -285 0 -285 0 0 -85z m530 -35 l0
-80 100 0 100 0 0 -45 0 -46 -147 3 -148 3 -3 78 -3 77 -119 0 -120 0 0 45 0
45 170 0 170 0 0 -80z"/>
<path d="M1910 3040 l0 -90 95 0 95 0 0 90 0 90 -95 0 -95 0 0 -90z"/>
<path d="M1720 2695 l0 -85 285 0 285 0 0 85 0 85 -285 0 -285 0 0 -85z"/>
<path d="M1530 2345 l0 -85 480 0 480 0 0 85 0 85 -480 0 -480 0 0 -85z"/>
<path d="M1340 2005 l0 -85 665 0 665 0 0 85 0 85 -665 0 -665 0 0 -85z"/>
<path d="M1720 1655 l0 -85 95 0 95 0 0 -85 0 -85 95 0 95 0 0 85 0 85 95 0
95 0 0 85 0 85 -285 0 -285 0 0 -85z"/>
<path d="M820 1065 l0 -335 273 2 272 3 3 43 3 42 45 0 44 0 0 120 0 120 -45
0 -45 0 0 45 0 45 45 0 45 0 0 80 0 80 -45 0 -45 0 0 45 0 45 -275 0 -275 0 0
-335z m450 165 l0 -80 -135 0 -135 0 0 80 0 80 135 0 135 0 0 -80z m0 -285 l0
-125 -135 0 -135 0 0 125 0 125 135 0 135 0 0 -125z"/>
<path d="M1760 1105 l0 -45 -45 0 -45 0 0 -120 0 -120 45 0 45 0 0 -45 0 -45
230 0 230 0 0 45 0 45 -180 0 -180 0 0 40 0 40 225 0 225 0 0 80 0 80 -45 0
-45 0 0 45 0 45 -230 0 -230 0 0 -45z m370 -80 l0 -45 -135 0 -135 0 0 45 0
45 135 0 135 0 0 -45z"/>
<path d="M2620 1105 l0 -45 -45 0 -45 0 0 -120 0 -120 45 0 45 0 0 -45 0 -45
230 0 230 0 0 45 0 45 -185 0 -185 0 0 40 0 40 230 0 230 0 0 80 0 80 -45 0
-45 0 0 45 0 45 -230 0 -230 0 0 -45z m368 -82 l3 -43 -140 0 -141 0 0 45 0
46 138 -3 137 -3 3 -42z"/>
<path d="M430 335 l0 -335 95 0 95 0 0 165 0 165 135 0 135 0 0 -165 0 -165
90 0 90 0 0 335 0 335 -90 0 -90 0 0 -125 0 -125 -135 0 -135 0 0 125 0 125
-95 0 -95 0 0 -335z"/>
<path d="M3000 335 l0 -335 95 0 95 0 0 85 0 85 45 0 45 0 0 -45 0 -45 45 0
45 0 0 -40 0 -40 90 0 90 0 0 40 0 40 -45 0 -45 0 0 45 0 45 -45 0 -45 0 0 40
0 40 45 0 45 0 0 40 0 40 45 0 45 0 0 45 0 45 -90 0 -90 0 0 -45 0 -45 -45 0
-45 0 0 -40 0 -40 -45 0 -45 0 0 210 0 210 -95 0 -95 0 0 -335z"/>
<path d="M1380 375 l0 -45 185 0 185 0 0 -40 0 -40 -185 0 -185 0 0 -40 0 -40
-45 0 -45 0 0 -45 0 -45 45 0 45 0 0 -40 0 -40 275 0 275 0 0 165 0 165 -45 0
-45 0 0 45 0 45 -230 0 -230 0 0 -45z m370 -250 l0 -45 -140 0 -140 0 0 45 0
45 140 0 140 0 0 -45z"/>
<path d="M2240 375 l0 -45 -45 0 -45 0 0 -125 0 -125 45 0 45 0 0 -40 0 -40
230 0 230 0 0 40 0 40 45 0 45 0 0 45 0 45 -95 0 -95 0 0 -45 0 -45 -135 0
-135 0 0 125 0 125 135 0 135 0 0 -40 0 -40 95 0 95 0 0 40 0 40 -45 0 -45 0
0 45 0 45 -230 0 -230 0 0 -45z"/>
</g>
</svg>
